<?xml version="1.0" encoding="UTF-8" standalone="no"?>
<!-- Created with Inkscape (http://www.inkscape.org/) -->

<svg
   width="247.87547mm"
   height="296.11917mm"
   viewBox="0 0 247.87547 296.11917"
   version="1.1"
   id="svg1"
   inkscape:version="1.3 (0e150ed6c4, 2023-07-21)"
   sodipodi:docname="player_running_10.svg"
   xmlns:inkscape="http://www.inkscape.org/namespaces/inkscape"
   xmlns:sodipodi="http://sodipodi.sourceforge.net/DTD/sodipodi-0.dtd"
   xmlns="http://www.w3.org/2000/svg"
   xmlns:svg="http://www.w3.org/2000/svg">
  <sodipodi:namedview
     id="namedview1"
     pagecolor="#505050"
     bordercolor="#eeeeee"
     borderopacity="1"
     inkscape:showpageshadow="0"
     inkscape:pageopacity="0"
     inkscape:pagecheckerboard="0"
     inkscape:deskcolor="#505050"
     inkscape:document-units="mm"
     inkscape:zoom="2.5488194"
     inkscape:cx="480.4185"
     inkscape:cy="457.85904"
     inkscape:window-width="2560"
     inkscape:window-height="1369"
     inkscape:window-x="1672"
     inkscape:window-y="-8"
     inkscape:window-maximized="1"
     inkscape:current-layer="layer2">
    <inkscape:page
       x="0"
       y="0"
       width="247.87547"
       height="296.11917"
       id="page7"
       margin="0"
       bleed="0"
       inkscape:export-filename="player_running_10.png"
       inkscape:export-xdpi="96"
       inkscape:export-ydpi="96" />
  </sodipodi:namedview>
  <defs
     id="defs1" />
  <g
     inkscape:label="Warstwa 1"
     inkscape:groupmode="layer"
     id="layer1"
     transform="translate(37.875477,-0.88082499)" />
  <g
     inkscape:groupmode="layer"
     id="layer2"
     inkscape:label="   "
     transform="translate(37.875477,-0.88082499)">
    <ellipse
       style="fill:#000000;stroke-width:0.264583"
       id="path2"
       cx="94.734398"
       cy="40.077473"
       rx="28.546713"
       ry="27.197231" />
    <rect
       style="fill:#000000;stroke-width:0.25169"
       id="rect2"
       width="37.165524"
       height="104.78117"
       x="-118.05488"
       y="-156.85635"
       transform="matrix(-0.97660627,-0.21503534,0.11319684,-0.99357258,0,0)" />
    <rect
       style="fill:#000000;stroke-width:0.237725"
       id="rect4"
       width="25.504301"
       height="62.759518"
       x="-152.16615"
       y="-198.37509"
       transform="matrix(-0.93538339,-0.35363527,0.39862794,-0.91711273,0,0)" />
    <rect
       style="fill:#000000;stroke-width:0.227301"
       id="rect5"
       width="21.574076"
       height="67.828575"
       x="86.842644"
       y="244.79016"
       transform="matrix(0.98367228,-0.17996902,0.07133606,0.99745234,0,0)" />
    <rect
       style="fill:#000000;stroke-width:0.239805"
       id="rect6"
       width="24.092367"
       height="67.605011"
       x="216.439"
       y="-48.127102"
       transform="matrix(0.06312158,0.99800584,-0.99716847,0.07520005,0,0)" />
    <rect
       style="fill:#000000;stroke-width:0.240367"
       id="rect7"
       width="22.124842"
       height="73.962593"
       x="-27.67112"
       y="182.92816"
       transform="matrix(0.86737579,-0.49765373,0.50247956,0.86458909,0,0)" />
    <rect
       style="fill:#000000;stroke-width:0.276822"
       id="rect8"
       width="21.780197"
       height="53.499481"
       x="95.873238"
       y="33.605293"
       transform="matrix(0.9030892,0.42945301,-0.38158687,0.92433298,0,0)" />
    <rect
       style="fill:#000000;stroke-width:0.249127"
       id="rect9"
       width="17.921579"
       height="58.226269"
       x="-91.18457"
       y="106.10392"
       transform="matrix(0.429114,-0.90325034,0.9313012,0.36425002,0,0)" />
    <rect
       style="fill:#1a1a1a;stroke-width:0.250025"
       id="rect10"
       width="17.57609"
       height="54.082302"
       x="-140.29082"
       y="80.716385"
       transform="matrix(-0.05342518,-0.99857186,0.99978232,0.02086411,0,0)" />
    <rect
       style="fill:#1a1a1a;stroke-width:0.281194"
       id="rect11"
       width="20.09236"
       height="66.165871"
       x="-98.659424"
       y="-139.23172"
       transform="matrix(-0.99951771,-0.03105389,-0.00959231,-0.99995399,0,0)" />
  </g>
</svg>
