<?xml version="1.0" encoding="UTF-8" standalone="no"?>
<!-- Created with Inkscape (http://www.inkscape.org/) -->

<svg
   width="247.87547mm"
   height="296.11917mm"
   viewBox="0 0 247.87547 296.11917"
   version="1.1"
   id="svg1"
   inkscape:version="1.3 (0e150ed6c4, 2023-07-21)"
   sodipodi:docname="player_running_11.svg"
   xmlns:inkscape="http://www.inkscape.org/namespaces/inkscape"
   xmlns:sodipodi="http://sodipodi.sourceforge.net/DTD/sodipodi-0.dtd"
   xmlns="http://www.w3.org/2000/svg"
   xmlns:svg="http://www.w3.org/2000/svg">
  <sodipodi:namedview
     id="namedview1"
     pagecolor="#505050"
     bordercolor="#eeeeee"
     borderopacity="1"
     inkscape:showpageshadow="0"
     inkscape:pageopacity="0"
     inkscape:pagecheckerboard="0"
     inkscape:deskcolor="#505050"
     inkscape:document-units="mm"
     inkscape:zoom="2.5488194"
     inkscape:cx="537.69992"
     inkscape:cy="406.07035"
     inkscape:window-width="2560"
     inkscape:window-height="1369"
     inkscape:window-x="1672"
     inkscape:window-y="-8"
     inkscape:window-maximized="1"
     inkscape:current-layer="layer2">
    <inkscape:page
       x="0"
       y="0"
       width="247.87547"
       height="296.11917"
       id="page7"
       margin="0"
       bleed="0"
       inkscape:export-filename="player_running_11.png"
       inkscape:export-xdpi="96"
       inkscape:export-ydpi="96" />
  </sodipodi:namedview>
  <defs
     id="defs1" />
  <g
     inkscape:label="Warstwa 1"
     inkscape:groupmode="layer"
     id="layer1"
     transform="translate(37.875477,-0.88082499)" />
  <g
     inkscape:groupmode="layer"
     id="layer2"
     inkscape:label="   "
     transform="translate(37.875477,-0.88082499)">
    <ellipse
       style="fill:#000000;stroke-width:0.264583"
       id="path2"
       cx="93.903946"
       cy="35.021374"
       ry="27.197231"
       rx="28.546713" />
    <rect
       style="fill:#000000;stroke-width:0.25169"
       id="rect2"
       width="37.165524"
       height="104.78117"
       x="-116.64995"
       y="-152.07162"
       transform="matrix(-0.97660627,-0.21503534,0.11319684,-0.99357258,0,0)" />
    <rect
       style="fill:#000000;stroke-width:0.237725"
       id="rect4"
       width="25.504301"
       height="62.759518"
       x="56.472977"
       y="-218.8204"
       transform="matrix(-0.65026909,0.75970396,-0.72723989,-0.68638338,0,0)" />
    <rect
       style="fill:#000000;stroke-width:0.227301"
       id="rect5"
       width="21.574076"
       height="67.828575"
       x="127.99083"
       y="223.12941"
       transform="matrix(0.99457543,0.1040179,-0.21214036,0.97723921,0,0)" />
    <rect
       style="fill:#000000;stroke-width:0.240359"
       id="rect6"
       width="22.408155"
       height="73.022118"
       x="212.75795"
       y="-82.496574"
       transform="matrix(0.19491337,0.98082046,-0.98247342,0.18640275,0,0)" />
    <rect
       style="fill:#000000;stroke-width:0.243731"
       id="rect7"
       width="22.720716"
       height="74.052887"
       x="26.510523"
       y="175.86987"
       transform="matrix(0.98051277,-0.19645537,0.21275551,0.97710547,0,0)" />
    <rect
       style="fill:#000000;stroke-width:0.276822"
       id="rect8"
       width="21.780197"
       height="53.499481"
       x="92.895409"
       y="28.93515"
       transform="matrix(0.896657,0.4427259,-0.3951783,0.91860444,0,0)" />
    <rect
       style="fill:#000000;stroke-width:0.249746"
       id="rect9"
       width="17.981573"
       height="58.320534"
       x="-85.319511"
       y="106.51271"
       transform="matrix(0.47039868,-0.88245401,0.91054752,0.41340443,0,0)" />
    <rect
       style="fill:#1a1a1a;stroke-width:0.222451"
       id="rect10"
       width="14.640702"
       height="51.394108"
       x="133.17091"
       y="-137.334"
       transform="matrix(0.06622981,0.9978044,-0.99376585,0.11148738,0,0)" />
    <rect
       style="fill:#1a1a1a;stroke-width:0.273908"
       id="rect11"
       width="18.96455"
       height="66.515076"
       x="-93.447327"
       y="-140.95407"
       transform="matrix(-0.99935934,0.03578977,-0.06570831,-0.99783887,0,0)" />
  </g>
</svg>
